<svg width="105" height="60" viewBox="0 0 105 60" fill="none" xmlns="http://www.w3.org/2000/svg">
<g clip-path="url(#clip0_1_12)">
<path d="M17.8686 32.592H25.1095V13.9061H17.8686V6.30023H41.7232V13.9061H34.477V32.597H41.718V40.2029H17.8686V32.592Z" fill="url(#paint0_linear_1_12)"/>
<path d="M76.0639 40.1976L57.1084 19.877V40.1976H47.6305V6.29996H58.1743L77.0248 26.7253V6.29996H86.3977V40.2026H76.0639V40.1976Z" fill="url(#paint1_linear_1_12)"/>
<path d="M27.4828 58.0963C27.4828 58.4353 27.4146 58.7243 27.2728 58.9586C27.1311 59.1979 26.9526 59.3923 26.7321 59.5417C26.5114 59.6963 26.2542 59.8059 25.9654 59.8807C25.6765 59.9554 25.3878 59.9903 25.0938 59.9903H17.1702C16.8919 59.9903 16.6084 59.9504 16.3248 59.8707C16.0413 59.791 15.784 59.6713 15.5581 59.5069C15.3324 59.3424 15.1486 59.143 15.0121 58.9037C14.8756 58.6646 14.8021 58.3954 14.8021 58.0913V56.3319H17.8791V57.548H24.4006V51.8611H22.2793V49.4239H27.4828V58.0963Z" fill="url(#paint2_linear_1_12)"/>
<path d="M32.0408 49.4284V57.5526H38.5623V49.4284H41.6394V58.091C41.6394 58.395 41.5658 58.6641 41.424 58.9034C41.277 59.1426 41.0933 59.342 40.8675 59.5064C40.6416 59.671 40.3896 59.7906 40.1114 59.8703C39.8331 59.95 39.5547 59.9899 39.2765 59.9899H31.3476C31.0484 59.9899 30.7544 59.955 30.476 59.8803C30.1977 59.8056 29.9457 59.6959 29.72 59.5413C29.4941 59.3869 29.3156 59.1924 29.1791 58.9581C29.0478 58.719 28.9796 58.4349 28.9796 58.0959V49.4284H32.0408Z" fill="url(#paint3_linear_1_12)"/>
<path d="M52.5665 59.9899L46.2339 53.66V59.9899H43.1358V49.4284H46.3704L52.7345 55.7883V49.4284H55.7957V59.985H52.5665V59.9899Z" fill="url(#paint4_linear_1_12)"/>
<path d="M60.3798 49.4284V59.9849H57.3184V49.4284H60.3798Z" fill="url(#paint5_linear_1_12)"/>
<path d="M61.8708 51.3274C61.8708 50.9884 61.9391 50.6994 62.0703 50.4652C62.2016 50.2259 62.3855 50.0316 62.6112 49.882C62.837 49.7324 63.089 49.6179 63.3674 49.543C63.6456 49.4683 63.9344 49.4334 64.239 49.4334H72.173C72.4514 49.4334 72.7296 49.4733 73.0079 49.553C73.2863 49.6327 73.5383 49.7524 73.764 49.9169C73.9898 50.0813 74.1737 50.2807 74.3207 50.52C74.4677 50.7592 74.5359 51.0283 74.5359 51.3324V58.101C74.5359 58.405 74.4624 58.6742 74.3207 58.9134C74.1737 59.1526 73.9898 59.352 73.764 59.5164C73.5383 59.681 73.2863 59.8006 73.0079 59.8803C72.7296 59.9602 72.4514 60 72.173 60H64.239C63.9396 60 63.6456 59.965 63.3674 59.8903C63.089 59.8156 62.837 59.7059 62.6112 59.5514C62.3855 59.3969 62.2068 59.2024 62.0703 58.9683C61.9391 58.729 61.8708 58.4449 61.8708 58.106V51.3274ZM71.459 57.5527V51.8657H64.9373V57.5527H71.459Z" fill="url(#paint6_linear_1_12)"/>
<path d="M84.8013 53.8294C84.964 53.7846 85.0587 53.7149 85.0797 53.6252V52.0003C85.0587 51.9454 85.0167 51.9006 84.964 51.8757C84.9115 51.8457 84.859 51.8209 84.8013 51.8009H76.0324V49.4334H86.7493C86.9122 49.4334 87.0802 49.4833 87.264 49.578C87.4425 49.6727 87.6105 49.7973 87.7576 49.9419C87.9099 50.0863 88.0306 50.2509 88.1304 50.4253C88.2301 50.5997 88.2774 50.7642 88.2774 50.9237V54.308C88.2774 54.6669 88.1934 54.9809 88.0254 55.24C87.8574 55.4992 87.6367 55.7136 87.3637 55.873C87.0907 56.0374 86.7861 56.1572 86.4396 56.2269C86.0983 56.3017 85.7517 56.3366 85.4052 56.3366L89.422 59.99H85.2319L81.0049 56.3366H79.1461V59.99H76.0324V53.8294H84.8013Z" fill="url(#paint7_linear_1_12)"/>
<path d="M12.7071 46.5027C9.97663 46.5027 8.03382 45.9644 6.87862 44.8829C5.72343 43.8013 5.14584 42.0219 5.14584 39.5397V29.2324C5.14584 27.7221 4.79928 26.6406 4.10617 25.9927C3.41305 25.3447 2.54142 25.0207 1.50174 25.0207H0V21.5817H1.50174C2.54142 21.5817 3.4078 21.2577 4.10092 20.6047C4.79403 19.9519 5.14584 18.8703 5.14584 17.35V6.99286C5.14584 4.50074 5.72343 2.71141 6.87862 1.62486C8.03382 0.538296 9.97663 0 12.7071 0H14.8442V3.43911H13.5157C11.3208 3.43911 10.0291 3.90763 9.64583 4.84466C9.41479 5.38794 9.29926 6.32497 9.29926 7.66074V17.8386C9.29926 20.3656 8.08632 22.1699 5.66568 23.2514C8.08632 24.333 9.29926 26.1373 9.29926 28.6643V38.842C9.29926 40.8656 9.66683 42.1067 10.3967 42.5751C10.8955 42.8991 11.9352 43.0636 13.5157 43.0636H14.8442V46.5027H12.7071Z" fill="url(#paint8_linear_1_12)"/>
<path d="M104.219 25.0207H102.775C101.735 25.0207 100.869 25.3447 100.181 25.9927C99.4879 26.6406 99.1414 27.7221 99.1414 29.2324V39.5397C99.1414 42.0219 98.5638 43.8063 97.4087 44.8829C96.2535 45.9644 94.3053 46.5027 91.5697 46.5027H89.3748V43.0636H90.7663C92.5044 43.0636 93.6438 42.8094 94.1845 42.306C94.7254 41.8026 94.9984 40.6463 94.9984 38.842V28.6643C94.9984 26.1373 96.2063 24.333 98.6216 23.2514C96.2063 22.1699 94.9984 20.3656 94.9984 17.8386V7.66074C94.9984 5.67703 94.6099 4.43097 93.838 3.92756C93.3339 3.60359 92.31 3.43911 90.7663 3.43911H89.3748V0H91.5697C94.3053 0 96.2483 0.54328 97.4087 1.62486C98.5638 2.71141 99.1414 4.50074 99.1414 6.99286V17.35C99.1414 18.8703 99.4879 19.9519 100.181 20.6047C100.874 21.2577 101.735 21.5817 102.775 21.5817H104.219V25.0207Z" fill="url(#paint9_linear_1_12)"/>
</g>
<defs>
<linearGradient id="paint0_linear_1_12" x1="103.5" y1="-4.71919e-07" x2="14.3128" y2="54.4992" gradientUnits="userSpaceOnUse">
<stop stop-color="#004B96"/>
<stop offset="1" stop-color="#047EF8"/>
</linearGradient>
<linearGradient id="paint1_linear_1_12" x1="103.5" y1="8.13416e-06" x2="14.3128" y2="54.4992" gradientUnits="userSpaceOnUse">
<stop stop-color="#004B96"/>
<stop offset="1" stop-color="#047EF8"/>
</linearGradient>
<linearGradient id="paint2_linear_1_12" x1="103.5" y1="-4.20685e-06" x2="14.3128" y2="54.4992" gradientUnits="userSpaceOnUse">
<stop stop-color="#004B96"/>
<stop offset="1" stop-color="#047EF8"/>
</linearGradient>
<linearGradient id="paint3_linear_1_12" x1="103.5" y1="-3.9717e-06" x2="14.3128" y2="54.4992" gradientUnits="userSpaceOnUse">
<stop stop-color="#004B96"/>
<stop offset="1" stop-color="#047EF8"/>
</linearGradient>
<linearGradient id="paint4_linear_1_12" x1="103.5" y1="-3.77716e-06" x2="14.3128" y2="54.4992" gradientUnits="userSpaceOnUse">
<stop stop-color="#004B96"/>
<stop offset="1" stop-color="#047EF8"/>
</linearGradient>
<linearGradient id="paint5_linear_1_12" x1="103.5" y1="6.26959e-06" x2="14.3128" y2="54.4993" gradientUnits="userSpaceOnUse">
<stop stop-color="#004B96"/>
<stop offset="1" stop-color="#047EF8"/>
</linearGradient>
<linearGradient id="paint6_linear_1_12" x1="103.5" y1="1.34799e-05" x2="14.3128" y2="54.4992" gradientUnits="userSpaceOnUse">
<stop stop-color="#004B96"/>
<stop offset="1" stop-color="#047EF8"/>
</linearGradient>
<linearGradient id="paint7_linear_1_12" x1="103.5" y1="1.69631e-05" x2="14.3128" y2="54.4992" gradientUnits="userSpaceOnUse">
<stop stop-color="#004B96"/>
<stop offset="1" stop-color="#047EF8"/>
</linearGradient>
<linearGradient id="paint8_linear_1_12" x1="103.5" y1="1.89052e-07" x2="14.3128" y2="54.4992" gradientUnits="userSpaceOnUse">
<stop stop-color="#004B96"/>
<stop offset="1" stop-color="#047EF8"/>
</linearGradient>
<linearGradient id="paint9_linear_1_12" x1="103.5" y1="-5.15617e-06" x2="14.3128" y2="54.4992" gradientUnits="userSpaceOnUse">
<stop stop-color="#004B96"/>
<stop offset="1" stop-color="#047EF8"/>
</linearGradient>
<clipPath id="clip0_1_12">
<rect width="105" height="60" fill="white"/>
</clipPath>
</defs>
</svg>
